# xmcd
#
# Track frame offsets:
#	150
#	14410
#	29485
#	45760
#	76657
#	97060
#	111610
#	127807
#	152482
#	166957
#	183157
#	202285
#	219760
#	237160
#	254485
#	274885
#	291535
#
# Disc length: 4098
#
# Revision: 3
# Processed by: cddbd v1.5.2PL0 Copyright (c) Steve Scherf et al.
# Submitted via: kJams Pro (development) 1.0patch49.26
#
DISCID=ec100011
DTITLE=O'Jays, Stylistics and The Spinners - LG075
DYEAR=1900
DGENRE=Karaoke R&B 50's
TTITLE0=O'Jays, The - Love Train
TTITLE1=O'Jays, The - Back Stabbers
TTITLE2=O'Jays, The - Used To Be My Girl
TTITLE3=O'Jays, The - For The Love Of Money
TTITLE4=O'Jays, The - I Love Music (Part 1)
TTITLE5=O'Jays, The - Darling Baby
TTITLE6=Stylistics, The - Becha By Golly, Wow
TTITLE7=Stylistics, The - You Make Me Feel Brand New
TTITLE8=Stylistics, The - You Are Everything
TTITLE9=Stylistics, The - I'm Stone In Love With You
TTITLE10=Stylistics, The - Break Up To Make Up
TTITLE11=Spinners, The - Rubberband Man
TTITLE12=Spinners, The - Games People Play
TTITLE13=Spinners, The - Working My Way Back To You 
TTITLE14=Spinners, The - Could It Be I'm Falling In Love
TTITLE15=Spinners, The - I'll Be Around
TTITLE16=Spinners, The - One Of A Kind (Love Affair)
EXTD=
EXTT0=
EXTT1=
EXTT2=
EXTT3=
EXTT4=
EXTT5=
EXTT6=
EXTT7=
EXTT8=
EXTT9=
EXTT10=
EXTT11=
EXTT12=
EXTT13=
EXTT14=
EXTT15=
EXTT16=
PLAYORDER=
